<svg width="48" height="49" fill="none" xmlns="http://www.w3.org/2000/svg"><path d="M40 45.804H8v-42h22l10 10v32Z" fill="#E92D13"/><path d="M38.5 14.804H29v-9.5l9.5 9.5Z" fill="#FBE9E7"/><path d="M15.81 30.304v3.5H13.8V23.85h3.39c.985 0 1.77.306 2.356.916.585.61.878 1.403.878 2.379s-.29 1.745-.868 2.31c-.578.567-1.381.848-2.407.848h-1.34Zm0-1.675h1.38c.384 0 .68-.125.89-.376.21-.251.314-.615.314-1.094 0-.497-.107-.892-.321-1.187a1.032 1.032 0 0 0-.861-.447H15.81v3.104Zm5.954 5.175V23.85h2.632c1.162 0 2.089.369 2.778 1.107.69.738 1.043 1.75 1.057 3.035v1.613c0 1.308-.346 2.335-1.035 3.079-.692.747-1.643 1.119-2.855 1.119h-2.577Zm2.009-8.278v6.61h.602c.67 0 1.142-.177 1.415-.53.273-.353.417-.962.43-1.828v-1.73c0-.93-.13-1.577-.39-1.943-.26-.367-.701-.56-1.325-.578h-.732v-.001Zm11.034 4.217h-3.124v4.06h-2.01v-9.952h5.51v1.675h-3.5v2.55h3.124v1.667Z" fill="#FFEBEE"/></svg>