<svg width="23" height="23" viewBox="0 0 23 23" fill="none" xmlns="http://www.w3.org/2000/svg">
<g clip-path="url(#clip0_46_284)">
<path d="M22.0419 11.2502C22.0392 11.0631 21.9636 10.8845 21.8313 10.7523L17.0397 5.9606C16.9735 5.89162 16.8941 5.83655 16.8063 5.79861C16.7186 5.76067 16.6241 5.74063 16.5285 5.73966C16.4329 5.73869 16.338 5.75681 16.2495 5.79295C16.1609 5.8291 16.0805 5.88254 16.0129 5.95016C15.9453 6.01778 15.8918 6.09821 15.8557 6.18674C15.8195 6.27528 15.8014 6.37013 15.8024 6.46575C15.8034 6.56138 15.8234 6.65584 15.8613 6.74362C15.8993 6.8314 15.9543 6.91073 16.0233 6.97696L19.5881 10.5417L1.67734 10.5417C1.5821 10.5403 1.48754 10.5579 1.39915 10.5935C1.31077 10.629 1.23033 10.6817 1.1625 10.7486C1.09467 10.8155 1.04081 10.8951 1.00405 10.983C0.967285 11.0709 0.948353 11.1652 0.948353 11.2604C0.948353 11.3557 0.967285 11.45 1.00405 11.5379C1.04081 11.6257 1.09467 11.7054 1.1625 11.7723C1.23033 11.8392 1.31077 11.8919 1.39915 11.9274C1.48754 11.9629 1.5821 11.9805 1.67734 11.9792L19.5881 11.9792L16.0233 15.5439C15.9543 15.6102 15.8993 15.6895 15.8613 15.7773C15.8234 15.8651 15.8034 15.9595 15.8024 16.0551C15.8014 16.1508 15.8195 16.2456 15.8557 16.3341C15.8918 16.4227 15.9453 16.5031 16.0129 16.5707C16.0805 16.6383 16.1609 16.6918 16.2495 16.7279C16.338 16.7641 16.4329 16.7822 16.5285 16.7812C16.6241 16.7803 16.7186 16.7602 16.8063 16.7223C16.8941 16.6843 16.9735 16.6293 17.0397 16.5603L21.8313 11.7686C21.8993 11.7007 21.953 11.6198 21.9892 11.5307C22.0253 11.4417 22.0433 11.3463 22.0419 11.2502Z" fill="#1565D8"/>
</g>
<defs>
<clipPath id="clip0_46_284">
<rect width="23" height="23" fill="white" transform="translate(23) rotate(90)"/>
</clipPath>
</defs>
</svg>
