<svg width="18" height="18" fill="none" xmlns="http://www.w3.org/2000/svg"><path d="M9.188 1.5c-1.792 0-3.262.504-4.278 1.466-1.015.961-1.535 2.353-1.535 3.971v1.41c-.428.341-.75.815-.75 1.403 0 .886.64 1.601 1.47 1.793.336 1.333.895 2.52 1.682 3.393C6.641 15.891 7.765 16.5 9 16.5a.562.562 0 1 0 0-1.125c-.87 0-1.687-.418-2.388-1.194-.7-.776-1.26-1.908-1.539-3.236a.562.562 0 0 0-.55-.447.742.742 0 0 1-.773-.748.73.73 0 0 1 .428-.668.563.563 0 0 0 .322-.508V6.938c0-1.385.418-2.43 1.184-3.156.765-.725 1.92-1.157 3.503-1.157 2.37 0 3.928 1.086 4.687 2.673.007.015.006.02-.022.029-.415.125-1.419.298-2.602.298-1.43 0-2.38-.266-2.966-.517-.585-.25-.761-.443-.761-.443a.563.563 0 0 0-.926.203s-.125.39-.753.873a.563.563 0 0 0 .687.893c.368-.284.594-.573.771-.822.187.13.187.18.539.33.727.312 1.839.608 3.409.608.805 0 1.497-.068 2.062-.161.088.264.188.65.188 1.098v3.75c0 .94-.749 1.688-1.688 1.688h-.69a1.313 1.313 0 1 0 0 1.125h.69a2.82 2.82 0 0 0 2.804-2.625h.009a1.5 1.5 0 0 0 1.5-1.5v-.75a1.5 1.5 0 0 0-1.5-1.5v-.188c0-.547-.11-1.032-.219-1.382.507-.287.747-.94.483-1.493-.94-1.963-2.974-3.312-5.701-3.312ZM7.124 9a.75.75 0 1 0 0 1.5.75.75 0 0 0 0-1.5Zm3.75 0a.75.75 0 1 0 0 1.5.75.75 0 0 0 0-1.5Z" fill="#FF602E"/></svg>